<svg width="585" height="585" viewBox="0 0 585 585" fill="none" xmlns="http://www.w3.org/2000/svg">
<g clip-path="url(#clip0_533_788)">
<path d="M208.312 299.055C208.896 302.206 209.456 305.234 210.035 308.355C209.481 308.443 209.056 308.562 208.628 308.572C204.275 308.664 199.919 308.713 195.567 308.842C194.658 308.869 194.302 308.57 194.196 307.701C194.026 306.318 193.822 304.937 193.55 303.572C193.141 301.519 192.113 300.669 190.008 300.634C188.068 300.601 186.124 300.587 184.188 300.681C183.708 300.704 183.089 301.065 182.811 301.464C181.331 303.585 179.957 305.779 178.496 307.914C178.265 308.252 177.778 308.621 177.406 308.623C172.333 308.668 167.26 308.652 162.187 308.646C162.091 308.646 161.995 308.596 161.766 308.531C162.456 307.289 163.121 306.078 163.799 304.88C167.773 297.858 171.757 290.844 175.708 283.81C176.063 283.177 176.464 282.981 177.159 282.985C189.617 283.071 202.075 283.126 214.532 283.218C215.337 283.224 216.156 283.386 216.939 283.593C220.124 284.444 221.459 286.738 220.68 289.97C219.5 294.869 216.165 297.471 211.453 298.563C210.468 298.79 209.452 298.88 208.314 299.055H208.312ZM185.644 297.186C185.973 297.239 186.104 297.28 186.236 297.28C190.625 297.29 195.013 297.329 199.4 297.262C199.941 297.254 200.72 296.803 200.963 296.336C201.626 295.059 202.239 293.705 202.545 292.307C202.987 290.293 201.568 288.656 199.522 288.589C196.873 288.502 194.222 288.482 191.573 288.404C190.915 288.386 190.512 288.625 190.187 289.203C188.934 291.424 187.637 293.621 186.363 295.829C186.132 296.231 185.928 296.649 185.646 297.182L185.644 297.186Z" fill="black"/>
<path d="M360.358 283.776C358.75 286.669 357.266 289.34 355.776 292.012C352.941 297.096 350.093 302.171 347.279 307.267C346.927 307.904 346.543 308.185 345.778 308.193C341.492 308.24 337.206 308.336 332.922 308.453C332.196 308.473 331.82 308.264 331.566 307.56C330.544 304.71 329.465 301.882 328.402 299.046C328.276 298.706 328.118 298.376 327.887 297.833C327.487 298.339 327.194 298.688 326.927 299.055C324.813 301.937 322.693 304.814 320.607 307.717C320.153 308.346 319.689 308.656 318.855 308.641C314.873 308.574 310.889 308.601 306.906 308.572C306.102 308.566 305.299 308.457 304.328 308.383C304.933 307.336 305.465 306.402 306.01 305.474C310.188 298.374 314.374 291.281 318.534 284.171C318.939 283.476 319.374 283.171 320.216 283.179C324.913 283.224 329.612 283.226 334.312 283.179C335.193 283.169 335.542 283.497 335.851 284.267C337.921 289.451 340.041 294.612 342.15 299.78C342.285 300.11 342.469 300.419 342.731 300.931C343.759 299.198 344.679 297.657 345.588 296.11C347.796 292.354 350.024 288.609 352.188 284.829C352.659 284.007 353.202 283.722 354.13 283.755C356.129 283.825 358.134 283.776 360.362 283.776H360.358Z" fill="black"/>
<path d="M297.979 283.2C297.423 285.898 296.906 288.421 296.385 290.945C295.246 296.471 294.094 301.995 292.982 307.527C292.853 308.168 292.657 308.465 291.951 308.463C286.745 308.441 281.537 308.453 276.331 308.447C276.102 308.447 275.875 308.39 275.548 308.347C275.875 306.671 276.19 305.054 276.523 303.345C275.06 303.271 273.713 303.173 272.364 303.144C270.152 303.099 267.941 303.068 265.729 303.105C265.234 303.114 264.65 303.308 264.27 303.618C262.479 305.081 260.754 306.627 258.98 308.109C258.665 308.371 258.219 308.625 257.831 308.631C254.223 308.67 250.616 308.654 247.01 308.65C246.914 308.65 246.82 308.607 246.609 308.556C246.838 308.289 247.01 308.058 247.21 307.857C252.874 302.206 258.536 296.555 264.206 290.91C266.522 288.605 268.834 286.296 271.197 284.038C271.567 283.683 272.186 283.417 272.695 283.411C278.208 283.349 283.72 283.356 289.233 283.323C291.749 283.308 294.263 283.243 296.779 283.202C297.115 283.196 297.448 283.202 297.981 283.202L297.979 283.2ZM270.15 297.948C270.436 298.116 270.52 298.206 270.606 298.208C272.746 298.225 274.886 298.26 277.024 298.208C277.273 298.202 277.664 297.747 277.729 297.444C278.179 295.354 278.563 293.25 278.96 291.15C279.037 290.742 279.08 290.33 279.14 289.918C279.052 289.865 278.962 289.814 278.874 289.761C275.998 292.459 273.122 295.158 270.148 297.948H270.15Z" fill="black"/>
<path d="M518.134 283.083C517.582 284.466 517.118 285.734 516.554 286.956C516.449 287.181 515.949 287.326 515.628 287.335C513.381 287.38 511.135 287.374 508.889 287.392C503.037 287.439 497.185 287.507 491.335 287.523C490.548 287.525 490.09 287.742 489.748 288.47C489.17 289.701 488.483 290.879 487.852 292.084C487.702 292.371 487.59 292.676 487.367 293.182H504.046C503.237 294.793 502.546 296.258 501.751 297.665C501.618 297.901 501.044 297.975 500.674 297.973C495.946 297.938 491.216 297.905 486.49 297.801C485.348 297.776 484.585 298.026 484.064 299.143C483.506 300.339 482.725 301.431 482.053 302.575C481.855 302.913 481.693 303.273 481.425 303.8C489.446 303.931 497.272 304.058 505.316 304.187C504.735 305.568 504.285 306.769 503.711 307.906C503.593 308.14 503.01 308.232 502.64 308.232C498.556 308.242 494.472 308.215 490.386 308.207C481.059 308.191 471.733 308.181 462.406 308.168C462.103 308.168 461.799 308.168 461.359 308.168C461.507 307.843 461.586 307.603 461.713 307.39C466.392 299.522 471.083 291.662 475.745 283.784C476.123 283.147 476.536 282.899 477.278 282.901C490.552 282.948 503.828 282.966 517.101 282.997C517.392 282.997 517.68 283.042 518.132 283.081L518.134 283.083Z" fill="black"/>
<path d="M409.791 286.185C409.292 287.189 408.842 288.177 408.301 289.111C408.188 289.306 407.732 289.412 407.452 289.384C404.613 289.097 401.784 288.724 398.943 288.47C394.581 288.08 390.213 287.529 385.878 288.746C382.616 289.662 379.92 291.385 377.974 294.19C375.946 297.112 376.206 300.645 378.573 302.73C379.775 303.79 381.234 304.24 382.787 304.331C385.33 304.478 387.734 304.036 389.768 302.345C390.743 301.536 391.376 300.497 391.558 299.251H383.856C384.275 298.088 384.631 297.049 385.021 296.024C385.371 295.106 385.52 293.861 386.197 293.389C386.871 292.918 388.09 293.197 389.069 293.203C394.24 293.242 399.411 293.297 404.581 293.352C404.875 293.357 405.167 293.404 405.615 293.445C405.2 294.192 404.842 294.838 404.484 295.483C402.162 299.682 399.814 303.866 397.539 308.088C397.012 309.07 396.441 309.512 395.264 309.451C392.999 309.334 390.724 309.418 388.335 309.418C388.609 308.146 388.852 307.007 389.138 305.677C388.498 305.837 388.049 305.931 387.611 306.062C382.438 307.599 377.203 308.736 371.758 308.398C369.667 308.269 367.652 307.826 365.857 306.66C363.987 305.445 363.012 303.675 362.748 301.505C362.319 297.981 363.371 294.92 365.753 292.303C368.821 288.931 372.755 286.96 376.95 285.437C382.487 283.427 388.198 282.518 394.085 282.993C399.25 283.409 404.296 284.499 409.278 285.896C409.431 285.939 409.564 286.054 409.793 286.183L409.791 286.185Z" fill="black"/>
<path d="M131.159 288.236H118.93C119.706 286.988 120.459 285.99 120.986 284.884C121.707 283.376 122.736 282.938 124.424 282.95C137.6 283.034 150.775 282.997 163.951 282.997H165.282C164.153 284.831 163.172 286.488 162.107 288.089C161.946 288.332 161.388 288.398 161.014 288.4C157.678 288.425 154.34 288.437 151.004 288.4C150.199 288.392 149.712 288.642 149.285 289.351C145.667 295.356 142.009 301.335 138.372 307.33C138.037 307.883 137.714 308.269 136.96 308.264C131.513 308.234 126.065 308.25 120.618 308.246C120.424 308.246 120.23 308.209 119.878 308.172C123.625 301.552 127.316 295.028 131.159 288.236Z" fill="black"/>
<path d="M452.94 303.519C452.17 305.253 451.493 306.845 450.739 308.396C450.624 308.631 450.138 308.803 449.823 308.803C443.595 308.82 437.365 308.803 431.137 308.797C430.524 308.797 429.912 308.789 429.299 308.785C422.699 308.742 416.099 308.701 409.499 308.656C409.229 308.656 408.959 308.629 408.512 308.605C408.7 308.234 408.827 307.945 408.984 307.677C413.583 299.841 418.188 292.01 422.785 284.173C423.075 283.677 423.376 283.36 424.044 283.364C429.217 283.397 434.391 283.382 439.566 283.382C439.699 283.382 439.834 283.405 440.13 283.429C436.564 290.111 433.038 296.719 429.41 303.517H452.942L452.94 303.519Z" fill="black"/>
<path d="M250.222 283.483C249.437 284.921 248.699 286.286 247.949 287.642C244.147 294.52 240.35 301.401 236.517 308.263C236.327 308.603 235.837 308.99 235.483 308.994C230.686 309.041 225.886 309.025 221.087 309.021C220.962 309.021 220.838 308.976 220.623 308.935C220.774 308.607 220.881 308.328 221.024 308.072C225.471 300.114 229.917 292.154 234.398 284.212C234.606 283.843 235.129 283.423 235.51 283.419C240.239 283.366 244.969 283.384 249.701 283.388C249.826 283.388 249.95 283.431 250.222 283.483Z" fill="black"/>
<path d="M93.2336 310H52C58.8822 298.725 65.6948 287.56 72.6137 276.223C79.5041 287.509 86.3167 298.669 93.2336 309.998V310ZM79.8045 293.342C77.3844 289.373 75.0706 285.577 72.6178 281.555C70.1528 285.595 67.8328 289.396 65.425 293.342H79.8066H79.8045ZM71.1523 307.25C68.7547 303.325 66.4552 299.561 64.0392 295.606C61.6048 299.593 59.3155 303.345 56.9322 307.25H71.1543H71.1523ZM88.3055 307.252C85.9672 303.427 83.7208 299.749 81.3335 295.842C78.9379 299.768 76.7038 303.429 74.3695 307.252H88.3055ZM72.5892 306.191C74.8949 302.409 77.0574 298.86 79.2956 295.19H65.8747C68.1272 298.882 70.2795 302.407 72.5892 306.191Z" fill="black"/>
<path d="M528.946 275C531.665 274.975 533.973 277.248 533.999 279.971C534.024 282.659 531.732 285.005 529.03 285.06C526.391 285.114 523.994 282.745 523.963 280.057C523.935 277.362 526.238 275.027 528.946 275.002V275ZM531.98 282.839C532.217 282.63 532.523 282.464 532.681 282.206C533.868 280.272 533.278 277.69 531.387 276.438C529.468 275.168 526.892 275.602 525.551 277.424C524.153 279.323 524.48 281.919 526.301 283.366C528.151 284.837 530.88 284.587 531.986 282.843L531.982 282.837L531.98 282.839Z" fill="black"/>
<path d="M531.984 282.843C530.819 283.085 530.518 282.13 530.046 281.43C529.19 280.157 528.949 280.04 527.332 280.256C527.289 281.096 527.246 281.96 527.201 282.825C527.07 282.829 526.937 282.833 526.807 282.837C526.743 282.579 526.629 282.323 526.627 282.065C526.608 280.669 526.641 279.274 526.608 277.879C526.592 277.223 526.817 276.942 527.489 276.979C528.201 277.018 528.916 276.998 529.631 276.996C530.492 276.996 531.101 277.369 531.25 278.233C531.397 279.086 530.976 279.659 530.161 279.942C530.069 279.975 529.985 280.032 529.772 280.147C530.525 281.063 531.252 281.948 531.98 282.833L531.984 282.839V282.843ZM528.932 279.643C529.01 279.633 529.462 279.704 529.721 279.512C530.101 279.231 530.555 278.768 530.57 278.368C530.58 278.073 529.962 277.547 529.576 277.496C528.853 277.399 528.094 277.573 527.352 277.645C527.328 277.647 527.313 277.766 527.295 277.83C526.927 279.112 527.326 279.651 528.932 279.641V279.643Z" fill="black"/>
</g>
<defs>
<clipPath id="clip0_533_788">
<rect width="482" height="35" fill="white" transform="translate(52 275)"/>
</clipPath>
</defs>
</svg>
